PathFileType	4	(X/Y/Z)	C:/Users/beibeiliu/ov580/test_trc/User1\sequence.17_training_dense_right.trc
DataRate	CameraRate	NumFrames	NumMarkers	Units	OrigDataRate	OrigDataStartFrame	OrigNumFrames
120	120	14	19	mm	120	220	292
Frame#	Time	ThumbCMC			ThumbMCP			ThumbIP			ThumbTip			IndexMCP			IndexPIP			IndexTip			MiddleMCP			MiddlePIP			MiddleTip			RingMCP			RingPIP			RingTip			PinkyMCP			PinkyPIP			PinkyTip			BackHand1			BackHand2			BackHand3	
		X0	Y0	Z0	X1	Y1	Z1	X2	Y2	Z2	X3	Y3	Z3	X4	Y4	Z4	X5	Y5	Z5	X6	Y6	Z6	X7	Y7	Z7	X8	Y8	Z8	X9	Y9	Z9	X10	Y10	Z10	X11	Y11	Z11	X12	Y12	Z12	X13	Y13	Z13	X14	Y14	Z14	X15	Y15	Z15	X16	Y16	Z16	X17	Y17	Z17	X18	Y18	Z18	
219	1.825	140.196	45.9099	63.3676	116.358	45.9169	44.568	101.568	51.2959	21.8644	86.123	57.7061	15.205	161.075	13.7761	-17.9937	163.425	0.543075	-42.9262	169.48	-10.1532	-62.5699	161.729	-21.2691	-9.38052	139.898	-41.4863	7.54777	134.047	-22.2076	41.6589	171.603	-36.758	12.941	147.417	-43.5709	33.4522	145.917	-19.455	58.1328	183.957	-39.9087	26.2783	162.132	-43.1989	41.3688	158.835	-15.2775	59.1358	202.904	13.5775	39.7213	203.583	29.5243	71.1852	175.818	42.5351	50.072	
220	1.83333	141.665	53.6543	61.9315	120.55	51.2171	41.6589	103.958	60.3368	23.6539	89.99	69.8106	12.0456	155.962	18.1476	-22.8282	156.766	5.28276	-45.8291	160.692	-6.3726	-67.0038	155.723	-20.646	-9.59758	127.133	-34.7674	8.54739	130.712	-17.4083	41.8664	165.073	-31.8272	10.4137	138.816	-41.0539	33.8832	139.616	-16.5096	57.0673	175.341	-39.452	26.7173	151.303	-41.1098	46.4585	151.096	-12.2005	58.0487	201.438	8.58547	38.7371	202.776	25.8018	72.912	177.9	40.1932	43.7879	
221	1.84167	144.061	56.6124	60.3932	121.91	60.2491	44.908	109.53	67.7906	25.5513	95.6528	80.9157	12.2331	155.872	19.0191	-22.0266	154.583	7.92057	-41.2781	154.67	-2.20665	-65.8217	150.794	-15.3837	-8.9482	118.164	-26.6565	6.72807	123.211	-9.81254	40.1527	157.276	-30.4853	11.6383	128.795	-34.9478	34.7047	131.821	-11.3204	55.639	169.109	-42.6279	28.8546	143.294	-37.647	42.0535	145.42	-12.3148	62.2164	198.284	8.81899	39.6194	201.12	24.0282	72.2108	180.489	42.0913	46.5684	
222	1.85	146.584	59.1209	59.1441	127.08	63.141	45.2186	113.677	77.9067	22.0417	101.955	89.1873	16.3304	153.298	21.6547	-22.2187	152.899	9.1379	-43.8314	152.208	0.0396367	-64.0016	145.713	-10.3706	-10.2105	112.561	-21.7619	4.82443	115.537	-4.96973	37.7252	145.993	-28.8703	10.4795	122.049	-29.8642	32.4896	129.785	-5.94096	57.4951	156.865	-41.7337	28.4838	134.403	-32.3816	44.433	138.305	-6.71576	58.103	195.994	4.30875	38.8761	200.416	19.3344	68.5908	178.37	41.946	43.4957	
223	1.85833	150.505	59.4217	60.0581	129.767	69.7327	40.6253	118.757	79.4671	25.4572	107.58	99.3747	13.0651	153.181	26.2244	-21.0614	150.921	17.97	-43.5955	153.143	1.65786	-66.776	139.341	-8.03467	-12.5112	109.208	-17.6336	4.54515	112.546	-1.58151	35.9407	140.047	-28.1343	10.0365	115.087	-22.6352	31.1762	126.016	-2.16007	57.0239	156.031	-36.6034	26.3911	128.308	-27.9536	42.2279	138.534	-3.91788	61.2749	192.455	5.9267	37.4495	201.323	18.5559	67.8271	182.128	42.801	46.0476	
224	1.86667	153.296	64.9877	59.9988	132.668	70.6883	40.4856	121.499	84.1858	24.0345	111.559	102.495	17.0447	155.916	27.4815	-21.5725	153.699	18.6131	-43.2993	156.526	6.98545	-67.922	140.036	-3.48978	-14.3533	107.678	-14.1163	2.04242	109.436	3.82198	34.7116	142.879	-23.7958	8.75603	111.91	-20.2727	29.4829	122.579	2.14471	53.1719	148.896	-35.52	24.477	124.552	-24.9111	38.1851	132.063	-2.24626	57.3458	190.41	1.73595	35.8674	198.437	14.4655	69.2476	184.446	40.5645	46.2266	
225	1.875	153.1	66.0846	58.7091	131.039	73.3645	44.8405	119.553	86.6303	24.5408	109.448	103.089	18.8964	161.026	29.1815	-20.1664	158.697	24.686	-45.1492	164.116	9.49582	-64.3724	141.2	-1.79308	-15.1128	108.055	-6.80157	-4.72182	107.393	4.97819	30.3477	138.684	-22.4766	6.04649	112.465	-15.6898	22.5271	120.416	-1.68056	52.5487	146.641	-31.4154	20.9478	123.471	-27.2474	38.5151	133.159	1.41627	57.9186	187.922	5.5021	35.5087	199.221	12.7457	70.3674	185.037	43.36	47.7574	
226	1.88333	152.093	63.7013	62.4808	125.324	72.6648	42.0558	111.717	82.5356	27.5223	100.279	99.1595	20.8541	162.913	35.8652	-17.9212	165.96	24.5366	-41.9775	172.226	14.1924	-61.5683	145.01	-2.63555	-16.8255	111.355	-6.18004	-8.34507	110.214	3.70323	28.4568	141.383	-19.2164	3.17837	115.913	-18.1369	19.4872	119.677	-0.523968	47.2141	153.703	-30.9834	21.1079	126.95	-23.7665	33.2518	130.137	0.467405	54.2878	193.448	4.42963	35.7244	198.628	18.0972	72.4375	183.204	44.1842	47.6585	
227	1.89167	148.381	62.0696	62.0468	118.275	66.812	45.8151	101.841	71.1464	25.9782	87.9011	81.4302	21.3824	167.749	34.8494	-20.3578	171.11	28.9873	-45.0306	178.418	19.9392	-63.9741	150.516	-0.579759	-18.5395	117.176	-7.87952	-11.3663	113.253	1.22898	25.3821	146.879	-18.0354	1.40408	118.93	-17.8422	17.3441	124.113	-2.29383	49.5447	156.449	-29.8478	18.9302	130.818	-23.1939	33.6968	135.751	-1.47649	55.1966	194.636	9.00907	36.6997	200.291	20.9281	73.4663	185.061	44.6953	51.1934	
228	1.9	140.087	63.4628	57.9281	113.353	61.1942	47.7691	95.6358	62.2425	27.1952	75.9976	70.8608	19.847	166.334	37.8578	-17.5277	170.619	33.5523	-40.2915	179.29	27.6728	-67.2154	155.902	2.04909	-16.9972	122.695	-10.6927	-12.7604	114.592	1.37139	24.3204	154.181	-14.557	0.773661	123.811	-21.8044	19.8399	126.979	-2.97168	48.5775	163.955	-31.4649	19.8065	136.877	-27.9076	30.066	137.623	0.056627	51.704	196.035	14.8517	38.5988	199.801	24.7228	72.1501	180.52	50.6577	46.9328	
229	1.90833	137.702	61.3997	61.3978	111.547	55.8484	49.7373	91.6051	59.7354	30.4838	73.0341	63.9255	23.7638	163.353	39.5114	-18.5312	166.699	33.8068	-41.2726	176.375	24.6188	-68.0498	152.717	6.38043	-17.8504	120.765	-13.5772	-9.15866	117.42	0.081157	26.3771	151.052	-16.6059	-0.592999	124.681	-22.435	20.4247	128.295	-8.29293	47.1262	161.885	-31.6085	18.6023	138.187	-23.9061	32.6237	141.582	-1.63146	54.2087	195.513	13.7414	34.9704	199.213	27.1446	73.795	178.341	51.8172	48.6435	
230	1.91667	141.211	57.4587	59.5997	112.564	55.943	45.3326	94.2305	61.2689	29.8092	75.9597	68.8348	17.3643	159.041	38.2613	-19.2088	160.586	29.2245	-40.6225	164.493	22.6625	-65.9125	152.025	0.761785	-16.0407	117.402	-13.6219	-7.56923	114.693	-2.33043	26.5034	150.96	-16.1787	2.16196	123.661	-23.1931	24.4599	130.401	-3.21998	50.3829	159.388	-31.2489	19.9006	136.644	-27.8043	37.2237	139.745	-6.04204	54.7744	195.525	12.1994	39.2773	201.361	23.0864	74.1876	176.573	49.509	50.06	
231	1.925	143.529	62.4466	61.0445	118.558	65.2223	43.093	103.672	73.6696	26.5206	90.2383	81.5685	13.6306	156.565	35.9763	-20.8096	155.218	26.3805	-47.3151	158.46	13.1404	-69.0675	147.52	-3.3092	-13.5592	113.773	-13.3379	-2.34352	115.544	-1.6971	31.7678	146.407	-18.1814	5.05876	120.059	-21.7104	23.982	128.751	-5.88576	52.0106	157.843	-35.5846	23.2116	132.302	-27.8267	41.1479	136.955	-1.7202	56.682	193.184	9.53116	38.222	201.148	19.7839	70.2113	180.96	43.9478	47.3179	
232	1.93333	153.559	61.3821	62.1636	131.778	68.6042	41.5571	121.754	82.0426	17.1971	111.262	97.0279	8.19563	157.804	28.2785	-24.1649	152.433	18.3797	-45.979	151.306	6.37899	-66.9634	141.266	-5.59324	-13.1372	111.16	-10.4741	-1.10885	118.215	6.7478	37.8487	140.411	-22.9893	8.2372	114.306	-14.4984	29.5998	127.249	3.0695	53.4293	148.795	-33.6588	24.1416	126.224	-22.1165	41.7009	134.927	-0.531001	56.4423	191.929	1.05091	36.4345	201.485	13.6816	74.806	183.226	44.5816	47.8363	
